<svg width="16" height="16" viewBox="0 0 16 16" fill="none"
  xmlns="http://www.w3.org/2000/svg">
  <path d="M10.6667 5.33333C11.7275 5.33333 12.7449 5.75476 13.4951 6.50491C14.2452 7.25505 14.6667 8.27247 14.6667 9.33333V14H12V9.33333C12 8.97971 11.8595 8.64057 11.6095 8.39053C11.3594 8.14048 11.0203 8 10.6667 8C10.313 8 9.9739 8.14048 9.72386 8.39053C9.47381 8.64057 9.33333 8.97971 9.33333 9.33333V14H6.66666V9.33333C6.66666 8.27247 7.08809 7.25505 7.83824 6.50491C8.58838 5.75476 9.6058 5.33333 10.6667 5.33333Z" stroke="white" stroke-linecap="round" stroke-linejoin="round"/>
  <path d="M4 6H1.33334V14H4V6Z" stroke="white" stroke-linecap="round" stroke-linejoin="round"/>
  <path d="M2.66667 4C3.40305 4 4 3.40305 4 2.66667C4 1.93029 3.40305 1.33333 2.66667 1.33333C1.93029 1.33333 1.33334 1.93029 1.33334 2.66667C1.33334 3.40305 1.93029 4 2.66667 4Z" stroke="white" stroke-linecap="round" stroke-linejoin="round"/>
</svg>
